<svg xmlns="http://www.w3.org/2000/svg" id="Слой_1" data-name="Слой 1" viewBox="0 0 342.98 342.39">
    <defs>
        <style>
            .cls-1{fill:#1abc9c;}
            .cls-5{fill:#2c3e50;}
            .cls-6{fill:#fff;}
        </style>
    </defs>
    <path class="cls-6" d="M113.81,276.62l11.91-10.08a3.37,3.37,0,0,0-.54-5.53l-4.63-2.57a3.39,3.39,0,0,0-5,2.48l-2.23,15.44A.29.29,0,0,0,113.81,276.62Z" transform="translate(-0.25 -0.61)"/>
    <path class="cls-1" d="M113.84,278.22a2.21,2.21,0,0,1-2.18-2.52l1.79-12.42a7,7,0,1,1,11.39,6.31l-9.58,8.11A2.22,2.22,0,0,1,113.84,278.22Zm.28-1.86h0Zm6.23-15.53a3.51,3.51,0,0,0-1.54.36,3.38,3.38,0,0,0-1.87,2.59l-1.3,9,6.93-5.86a3.44,3.44,0,0,0,1.2-3,3.37,3.37,0,0,0-1.76-2.67A3.3,3.3,0,0,0,120.35,260.83Z" transform="translate(-0.25 -0.61)"/>
</svg>