<svg width="16" height="26" viewBox="0 0 16 26" fill="none" xmlns="http://www.w3.org/2000/svg">
<path d="M15.5 7.8C15.5 8.80313 15.1839 10.4225 14.644 12.3246C14.1081 14.2125 13.3647 16.3345 12.5383 18.3236C11.7106 20.3158 10.8067 22.1574 9.95364 23.4929C9.52598 24.1623 9.12299 24.6855 8.76158 25.0354C8.38188 25.4031 8.12954 25.5 8 25.5C7.87046 25.5 7.61812 25.4031 7.23842 25.0354C6.87701 24.6855 6.47402 24.1623 6.04636 23.4929C5.19326 22.1574 4.28943 20.3158 3.46173 18.3236C2.63531 16.3345 1.89193 14.2125 1.356 12.3246C0.816071 10.4225 0.5 8.80313 0.5 7.8C0.5 3.78018 3.84586 0.5 8 0.5C12.1541 0.5 15.5 3.78018 15.5 7.8Z" fill="#F0F2F5" stroke="#3A3D40"/>
<circle cx="8" cy="8" r="4" fill="#3A3D40"/>
</svg>
